<svg xmlns="http://www.w3.org/2000/svg" width="144.63" height="22.856" viewBox="0 0 144.63 22.856">
  <g id="Group_60" data-name="Group 60" transform="translate(-604 -1669)">
    <path id="Icon_awesome-star" data-name="Icon awesome-star" d="M12.1.794,9.186,6.7l-6.521.951a1.429,1.429,0,0,0-.79,2.437l4.718,4.6L5.476,21.184a1.428,1.428,0,0,0,2.071,1.5l5.834-3.066,5.834,3.066a1.429,1.429,0,0,0,2.071-1.5l-1.116-6.494,4.718-4.6a1.429,1.429,0,0,0-.79-2.437L17.577,6.7,14.662.794a1.43,1.43,0,0,0-2.562,0Z" transform="translate(602.559 1669.001)" fill="#ee733f"/>
    <path id="Icon_awesome-star-2" data-name="Icon awesome-star" d="M12.1.794,9.186,6.7l-6.521.951a1.429,1.429,0,0,0-.79,2.437l4.718,4.6L5.476,21.184a1.428,1.428,0,0,0,2.071,1.5l5.834-3.066,5.834,3.066a1.429,1.429,0,0,0,2.071-1.5l-1.116-6.494,4.718-4.6a1.429,1.429,0,0,0-.79-2.437L17.577,6.7,14.662.794a1.43,1.43,0,0,0-2.562,0Z" transform="translate(632.746 1669.001)" fill="#ee733f"/>
    <path id="Icon_awesome-star-3" data-name="Icon awesome-star" d="M12.1.794,9.186,6.7l-6.521.951a1.429,1.429,0,0,0-.79,2.437l4.718,4.6L5.476,21.184a1.428,1.428,0,0,0,2.071,1.5l5.834-3.066,5.834,3.066a1.429,1.429,0,0,0,2.071-1.5l-1.116-6.494,4.718-4.6a1.429,1.429,0,0,0-.79-2.437L17.577,6.7,14.662.794a1.43,1.43,0,0,0-2.562,0Z" transform="translate(662.934 1669.001)" fill="#ee733f"/>
    <path id="Icon_awesome-star-4" data-name="Icon awesome-star" d="M12.1.794,9.186,6.7l-6.521.951a1.429,1.429,0,0,0-.79,2.437l4.718,4.6L5.476,21.184a1.428,1.428,0,0,0,2.071,1.5l5.834-3.066,5.834,3.066a1.429,1.429,0,0,0,2.071-1.5l-1.116-6.494,4.718-4.6a1.429,1.429,0,0,0-.79-2.437L17.577,6.7,14.662.794a1.43,1.43,0,0,0-2.562,0Z" transform="translate(693.121 1669.001)" fill="#ee733f"/>
    <path id="Icon_awesome-star-5" data-name="Icon awesome-star" d="M12.1.794,9.186,6.7l-6.521.951a1.429,1.429,0,0,0-.79,2.437l4.718,4.6L5.476,21.184a1.428,1.428,0,0,0,2.071,1.5l5.834-3.066,5.834,3.066a1.429,1.429,0,0,0,2.071-1.5l-1.116-6.494,4.718-4.6a1.429,1.429,0,0,0-.79-2.437L17.577,6.7,14.662.794a1.43,1.43,0,0,0-2.562,0Z" transform="translate(723.309 1669.001)" fill="#ee733f"/>
  </g>
</svg>
